Fly_normalized_Motion_pl05
version=1
nRows=16
nColumns=43
inDegrees=yes
endheader
time		pelvis_tilt		pelvis_list		pelvis_rotation		pelvis_tx		pelvis_ty		pelvis_tz		hip_flexion_r		hip_adduction_r		hip_rotation_r		knee_angle_r		ankle_angle_r		subtalar_angle_r		mtp_angle_r		hip_flexion_l		hip_adduction_l		hip_rotation_l		knee_angle_l		ankle_angle_l		subtalar_angle_l		mtp_angle_l		lumbar_extension		lumbar_bending		lumbar_rotation		neck_flexion		neck_lateral_bending		neck_rotation		arm_flex_r		arm_add_r		arm_rot_r		elbow_flex_r		pro_sup_r		wrist_flex_r		wrist_dev_r		hand_finger_flex_r		arm_flex_l		arm_add_l		arm_rot_l		elbow_flex_l		pro_sup_l		wrist_flex_l		wrist_dev_l		hand_finger_flex_l		
0.692500		5.590900		-20.212578		100.024407		0.021681		1.714108		1.244781		84.618645		-9.926407		-9.735478		-85.947172		2.417802		6.811408		9.258622		88.107911		-0.875943		8.285013		-96.238782		16.641131		-4.604036		-17.724203		-35.184387		8.533322		-0.937418		25.381956		0.875611		4.768367		79.490600		-22.618852		12.366650		77.093919		92.280671		-29.335675		1.333640		52.838452		97.992393		-41.141976		49.667331		91.456005		105.355094		-38.936701		16.083481		83.880289		
0.696515		5.564602		-20.149089		100.038784		0.021522		1.710263		1.236653		84.390341		-9.848870		-9.759811		-83.815666		1.406059		6.774417		9.513065		87.826846		-0.758558		8.264558		-94.222325		15.644505		-4.427550		-17.559942		-35.281719		8.634147		-0.904949		25.344520		0.638605		4.764489		77.077846		-22.566069		10.809787		77.852493		92.437080		-29.082514		2.080919		52.320502		95.637704		-42.664406		48.872450		92.812615		105.890602		-38.493944		16.533975		83.597124		
0.700530		5.539212		-20.052233		100.081061		0.021416		1.706263		1.228393		84.053643		-9.789778		-9.773633		-81.656549		0.394459		6.753099		9.702536		87.460639		-0.675140		8.223279		-92.164190		14.600175		-4.181597		-17.438232		-35.372450		8.720652		-0.896003		25.230023		0.515978		4.737084		74.579622		-22.536128		9.280291		78.574974		92.435483		-28.963724		2.659223		51.865524		93.281595		-44.207368		48.214077		94.076929		106.273349		-38.163717		16.889018		83.366740		
0.704545		5.455812		-19.912493		100.088207		0.021326		1.702082		1.219874		83.627465		-9.745157		-9.742732		-79.542259		-0.608049		6.659991		9.705397		86.982954		-0.633227		8.111042		-90.108690		13.595513		-3.896833		-17.436250		-35.492747		8.719049		-0.873055		25.032319		0.486745		4.688062		71.991980		-22.728683		7.946830		79.366863		92.160073		-29.063203		2.948066		51.699887		90.912715		-45.771568		47.700271		95.295605		106.382635		-38.154204		17.058292		83.316086		
0.708561		5.419760		-20.141292		100.006501		0.020786		1.697240		1.211591		83.523268		-9.638267		-9.695049		-77.282043		-1.911995		5.937305		10.015668		86.783230		-0.589423		7.996724		-87.934017		12.539864		-3.870471		-17.094080		-35.213219		8.853307		-0.882014		25.057093		-0.049710		4.789259		69.574831		-22.769975		6.784232		80.127796		92.083760		-28.309450		3.877152		50.899756		87.476465		-47.430889		45.910377		96.693961		107.174326		-37.578504		17.705151		82.860810		
0.712576		5.593679		-20.188592		100.092551		0.020373		1.692441		1.203130		83.118525		-9.550540		-9.858503		-74.986122		-3.224557		5.369965		10.655460		86.450047		-0.560966		8.122483		-85.775590		11.355450		-3.623951		-16.343584		-35.037730		9.227580		-1.003024		24.790778		-0.570560		4.971833		67.177885		-22.493337		5.561391		80.573708		92.029243		-27.326444		4.384829		49.457641		83.878103		-49.263123		43.979496		98.024892		108.049123		-36.445314		18.284330		82.161205		
0.716591		5.435942		-20.042061		100.092374		0.020021		1.687863		1.194328		82.493185		-9.590118		-9.780180		-72.809026		-4.313125		4.991355		10.706319		85.728837		-0.497823		7.963892		-83.556061		10.369433		-3.240207		-16.154785		-35.150506		9.150409		-1.004218		24.767288		-0.406710		4.924795		64.470264		-22.897406		4.350961		81.352099		91.643909		-27.287272		4.303242		49.247854		81.033463		-50.728080		43.099129		98.986925		107.970916		-36.553667		18.333245		82.079207		
0.720606		5.515961		-20.056604		100.126036		0.019509		1.682749		1.185581		81.966835		-9.512777		-9.865210		-70.537617		-5.661701		4.157137		11.096008		85.211821		-0.477897		8.018874		-81.333821		9.203300		-3.009074		-15.221617		-34.997776		9.429323		-1.166055		24.568153		-0.857862		5.123953		62.052478		-22.788340		3.378577		81.709384		91.254083		-26.613013		4.247785		48.443393		77.026448		-52.530740		40.935928		100.074318		108.458144		-36.034099		18.336802		81.888189		
0.724621		5.368095		-19.932386		100.118949		0.019063		1.677739		1.176568		81.286774		-9.549094		-9.812200		-68.383962		-6.853945		3.467644		11.116631		84.419030		-0.431077		7.877673		-79.060566		8.123187		-2.701592		-14.711868		-35.041221		9.388637		-1.200778		24.533296		-0.814847		5.085582		59.340671		-23.190416		2.280614		82.364901		90.903993		-26.429325		4.052853		48.312778		73.501370		-53.961325		39.403354		100.885631		108.532628		-36.110042		18.245177		81.952601		
0.728636		5.297457		-19.780875		100.174182		0.018673		1.672438		1.167479		80.523703		-9.570467		-9.787806		-66.227828		-8.001303		2.829654		11.036314		83.624871		-0.406745		7.768101		-76.820255		6.955670		-2.394117		-14.230923		-35.037184		9.426257		-1.271537		24.267208		-0.795925		5.061172		56.605950		-23.449829		1.163389		82.853101		90.600275		-26.330824		3.841649		48.282727		69.844764		-55.401663		37.817178		101.529299		108.705122		-36.133738		18.073592		82.171229		
0.732652		5.426668		-19.768441		100.187534		0.018209		1.666768		1.158370		79.837365		-9.412702		-9.902985		-63.985372		-9.311963		1.736538		10.830454		82.974390		-0.471939		7.854929		-74.571021		5.657950		-2.361475		-13.040116		-34.863929		9.780934		-1.552974		24.090979		-1.402725		5.338444		54.325980		-23.238421		0.510967		82.908487		90.395511		-25.795862		3.518263		48.287722		64.496200		-57.181078		34.361591		102.327227		109.457531		-35.767975		17.378791		82.812352		
0.736667		5.337141		-19.578708		100.278036		0.017545		1.661204		1.148934		78.944600		-9.509253		-9.922356		-61.912313		-10.308708		1.095652		10.553035		82.024470		-0.420575		7.719218		-72.270997		4.393964		-2.186539		-11.862684		-34.919119		9.906026		-1.786225		24.127343		-1.446505		5.521257		51.719821		-23.492374		-0.323615		83.302634		90.392352		-25.674850		3.156157		48.372908		59.548447		-58.560958		31.391424		102.916828		109.690137		-35.705855		16.928796		83.176229		
0.740682		5.200982		-19.372892		100.308645		0.017096		1.655532		1.139517		78.025489		-9.548412		-9.881397		-59.866048		-11.229998		0.508026		10.257811		81.018714		-0.377765		7.590920		-69.971658		3.144117		-2.101913		-10.895274		-34.974046		9.902442		-1.836097		24.086196		-1.473650		5.478839		48.920886		-23.857495		-1.399501		83.738729		90.330505		-25.638785		2.813611		48.538321		54.780531		-59.641200		28.659350		103.292040		109.874245		-35.758114		16.544775		83.529661		
0.744697		5.085579		-19.156204		100.318876		0.016636		1.649549		1.129915		77.075196		-9.556144		-9.872390		-57.877585		-12.106245		-0.062489		9.932060		79.995812		-0.391413		7.452353		-67.715765		1.867581		-2.130717		-9.886248		-35.022089		9.927806		-1.880392		24.057788		-1.558394		5.410474		46.095634		-24.183788		-2.468960		84.147601		90.312875		-25.570209		2.455035		48.750639		49.614133		-60.619982		25.528105		103.556379		110.132968		-35.802073		16.083734		83.967413		
0.748712		5.031271		-18.897161		100.308685		0.016326		1.643367		1.120201		76.047195		-9.484836		-9.914144		-55.904650		-13.005895		-0.679981		9.589733		78.937817		-0.472991		7.358808		-65.494110		0.494545		-2.362187		-8.715625		-35.095816		10.018941		-2.070508		24.022453		-1.727675		5.557386		43.495932		-24.212495		-3.387367		84.284537		90.365965		-25.313034		2.129634		48.974524		43.451400		-61.601337		21.311286		103.833327		110.610115		-35.771995		15.391532		84.533785		
0.752727		4.834383		-18.608871		100.284711		0.016011		1.637099		1.110384		74.990677		-9.499467		-9.834009		-54.029689		-13.706619		-1.038913		9.416179		77.748328		-0.511218		7.114449		-63.215899		-0.657378		-2.511827		-8.351462		-35.214386		9.842975		-1.702260		24.066845		-1.581254		5.010369		40.167462		-24.918337		-4.968134		84.949818		90.280797		-25.397173		1.744914		49.145211		39.030202		-61.847822		18.930462		103.666426		110.635389		-36.081140		15.226697		84.806953		
